<?xml version="1.0" encoding="UTF-8" standalone="no"?>
<svg
   xmlns:dc="http://purl.org/dc/elements/1.1/"
   xmlns:cc="http://creativecommons.org/ns#"
   xmlns:rdf="http://www.w3.org/1999/02/22-rdf-syntax-ns#"
   xmlns:svg="http://www.w3.org/2000/svg"
   xmlns="http://www.w3.org/2000/svg"
   xmlns:sodipodi="http://sodipodi.sourceforge.net/DTD/sodipodi-0.dtd"
   xmlns:inkscape="http://www.inkscape.org/namespaces/inkscape"
   xml:space="preserve"
   version="1.1"
   width="103.26604"
   height="89.104401"
   id="svg1494"
   sodipodi:docname="game.svg"
   inkscape:version="1.0 (4035a4f, 2020-05-01)"><metadata
     id="metadata1500"><rdf:RDF><cc:Work
         rdf:about=""><dc:format>image/svg+xml</dc:format><dc:type
           rdf:resource="http://purl.org/dc/dcmitype/StillImage" /><dc:title></dc:title></cc:Work></rdf:RDF></metadata><defs
     id="defs1498" /><sodipodi:namedview
     inkscape:document-rotation="0"
     pagecolor="#ffffff"
     bordercolor="#666666"
     borderopacity="1"
     objecttolerance="10"
     gridtolerance="10"
     guidetolerance="10"
     inkscape:pageopacity="0"
     inkscape:pageshadow="2"
     inkscape:window-width="1792"
     inkscape:window-height="1120"
     id="namedview1496"
     showgrid="false"
     fit-margin-top="0"
     fit-margin-left="0"
     fit-margin-right="0"
     fit-margin-bottom="0"
     inkscape:zoom="5.9259262"
     inkscape:cx="76.068911"
     inkscape:cy="63.069378"
     inkscape:window-x="0"
     inkscape:window-y="0"
     inkscape:window-maximized="0"
     inkscape:current-layer="layer1" /><g
     inkscape:label="colour"
     id="layer1"
     inkscape:groupmode="layer"><path
       id="path888"
       d="m 68.497555,37.632947 c 0.527502,-0.81461 0.880306,-1.771618 1.582504,-2.44383 0.801184,-0.766969 4.623852,-3.026307 5.802515,-3.840302 1.46425,-1.011227 4.527273,-3.267476 6.330014,-3.491185 2.92794,-0.36334 3.434386,0.07888 6.154182,1.571033 0.789807,0.433308 6.514729,4.11609 7.033351,4.53854 3.481909,2.836243 8.967529,9.010982 8.967529,13.79018 0,3.515297 -3.34715,6.175535 -5.27502,8.553403 -0.815978,1.006443 -1.556663,2.071968 -2.285839,3.142066 -4.106877,6.02703 0.28116,-0.23123 -2.989174,5.236778 -2.204354,3.685686 -5.002725,7.032827 -7.560852,10.473555 -0.946837,1.273513 -1.813127,2.607659 -2.81334,3.840302 -1.775475,2.188062 -5.573157,5.559329 -8.088353,6.807811 -1.70879,0.848202 -3.955258,1.506053 -5.802514,1.920152 -2.590098,0.580622 -8.995999,0.957734 -11.429195,-0.174559 -2.148243,-0.99969 -3.844472,-3.03912 -4.923344,-5.062218 -0.494384,-0.927068 -0.941435,-1.924614 -1.055003,-2.967508 -0.279702,-2.568486 1.367244,-8.096844 2.461673,-10.473554 0.480615,-1.043727 1.223613,-1.950049 1.758336,-2.967507 2.187494,-4.162305 3.118434,-6.225622 4.395845,-10.822674 2.072057,-7.456762 0.135267,-1.295891 0.703335,-8.204284 0.194081,-2.360249 1.708386,-8.699085 2.81334,-10.473555 0.9809,-1.575247 2.696118,-2.560202 4.044177,-3.840303"
       style="fill:#e85c90;fill-opacity:1;stroke:none;stroke-width:1.0382px;stroke-linecap:butt;stroke-linejoin:miter;stroke-opacity:1" /><path
       sodipodi:nodetypes="cccssssssssssc"
       id="path890"
       d="m 64.08604,17.35574 c -0.157454,3.433454 1.056868,6.928516 4.257707,8.125509 4.842293,4.394491 -5.084639,0.307922 4.725,2.3625 -0.115305,0.960868 6.386394,-0.671503 4.725,1.6875 -1.215474,1.725844 -3.460839,3.49888 -4.725,5.231249 -1.10818,1.518617 -2.544947,2.794814 -3.54375,4.3875 -1.09601,1.747692 -1.764986,3.729888 -2.7,5.56875 -0.752862,1.480629 -1.605935,2.90876 -2.3625,4.3875 -1.629816,3.185549 -2.257247,6.756086 -4.21875,9.787499 -0.281729,0.435401 -0.517972,1.337417 -1.0125,1.18125 -0.986141,-0.311413 -1.480547,-1.444887 -2.19375,-2.19375 -1.537107,-1.613963 -2.953311,-3.345148 -4.556249,-4.893749 -1.72015,-1.66184 -3.496848,-3.276332 -5.4,-4.725 -7.718746,-5.875464 -15.337205,-7.645622 -24.299999,-10.4625"
       style="fill:#a0a6be;fill-opacity:1;stroke:none;stroke-width:1px;stroke-linecap:butt;stroke-linejoin:miter;stroke-opacity:1" /><path
       sodipodi:nodetypes="csssssssssssssssccsssc"
       id="path894"
       d="M 25.143749,38.306248 C 19.113017,40.26343 12.843037,39.997757 6.7499997,38.643748 5.8443922,38.442502 4.9086285,38.320006 4.0499998,37.968748 3.6433825,37.802405 3.3586718,37.424759 3.0374999,37.124998 2.5141041,36.636496 1.9220684,36.197782 1.5187499,35.606248 -0.22939199,33.042307 -0.33636777,28.801626 0.84374996,25.987499 2.8905958,21.106559 7.2609419,17.691686 11.137499,14.343749 c 1.145577,-0.989361 2.063377,-2.067202 3.375,-2.86875 1.310066,-0.800595 2.745525,-1.384075 4.05,-2.1937494 2.472595,-1.5347139 4.43038,-3.4915347 6.75,-5.2312498 0.823903,-0.6179276 1.60862,-1.3949351 2.53125,-1.8562499 0.306033,-0.1530165 0.675,-0.1125 1.0125,-0.16875 3.105972,-0.5176621 6.138671,-0.50625 9.281249,-0.50625 2.070109,0 3.770152,-0.57990851 5.90625,-0.5062499 3.760342,0.1296669 7.965655,2.4146473 11.30625,3.8812498 4.291716,1.8841682 4.692373,1.4020606 7.424999,4.8937498 2.102323,2.6863024 2.586217,5.5464154 0,8.2687494 -5.336842,2.556032 -8.276514,5.305927 -13.331249,8.26875 -3.728064,2.08078 -7.752277,2.457371 -10.8,5.4 -2.851717,2.753381 -5.985932,5.992239 -9.956249,7.087499 -0.368817,0.101743 -4.31889,0.55199 -4.89375,0.16875 -0.418617,-0.279078 0.878918,-0.498344 1.35,-0.675 z"
       style="fill:#58efec;fill-opacity:1;stroke:none;stroke-width:1px;stroke-linecap:butt;stroke-linejoin:miter;stroke-opacity:1" /></g><g
     id="g1492"
     transform="translate(-539.11396,-283.72426)"><path
       sodipodi:nodetypes="cccccccccccccccccccccccscccccc"
       fill="#000000"
       d="m 539.24,309.8 c 0,0 0.35,-0.99 0.5,-1.5 0.32,-1.05 0.85,-1.73 1.44,-2.62 1.53,-2.29 4.21,-4.03 6.22,-5.81 1.57,-1.4 3.55,-2.18 5.3,-3.37 5.56,-3.77 10.31,-7.09 16.37,-10.22 2.24,-1.17 4.53,-2.16 7.13,-2.05 3.46,0.14 5.87,0.22 8.94,1.7 0.62,0.3 2.01,0.99 2.26,1.67 0.43,1.14 -4.57,-1.96 -4.7,-2 -3.18,-1.03 -6.9,-0.55 -10.1,0.03 -1.5,0.27 -2.88,1.23 -4.23,1.96 -7.06,3.76 -13.73,8.13 -20.27,12.71 0,0 -1.58,1.51 -2.44,2.19 -1.75,1.41 -3.33,2.99 -4.66,4.81 0,0 -0.38,1.07 -0.58,1.6 -0.38,1.03 -0.39,2.11 -0.51,3.2 -0.01,0.1 0.35,1.51 0.59,2.2 0.44,1.23 1.45,3.75 2.8,4.4 5.55,2.68 12.43,3.8 18.6,2.8 2.78,-0.45 6.37,-1.46 8.9,-2.8 1.35,-0.72 2.5,-1.72 3.99,-2.23 1.61,-0.56 3.21,-1.1 4.83,-1.64 0.31,-0.11 2.20376,-0.13297 2.20376,0.56703 0,0.77 -2.37376,0.59297 -3.02376,0.76297 -3.25,0.88 -5.84,2.58 -8.9,3.74 -6.98,2.65 -12.98,2.66 -20.3,2.05 -2.44,-0.2 -6.17,-1.59 -7.9,-3.45 -1.43,-1.55 -2.01,-3.93 -2.57,-5.9 -0.03,-0.1 -0.06,-2.36 0.33,-3.4"
       id="path1422" /><path
       fill="#000000"
       d="m 593.6,324.5 c 0,0 0,0 0,0 0,0 0.49,0.38 0.4,0.6 -0.1,0.1 -0.23,0.23 -0.3,0.3 0,0 -0.28,0.28 -0.4,0.2 0,-0.1 -0.39,0.02 -0.58,0.09 -1.58,0.5 -3.15,1.01 -4.73,1.52 -3.06,0.98 -5.84,-0.76 -7.79,-2.91 -1.55,-1.71 -2.91,-3.69 -2,-6.1 0.39,-1.03 2.19,-3.38 3.4,-3.2 0.32,0.05 0.37,0.51 0.1,0.65 -0.1,0.05 -0.99,0.79 -1.43,1.16 -0.51,0.42 -1.13,1.07 -1.37,1.69 -0.92,2.39 1.24,4.87 2.8,6.3 3.33,3.07 7.85,1.4 11.51,-0.06 0.09,-0.04 0.49,-0.39 0.49,-0.24 m -0.25,0.1 c 0,0 0,0 0,0 0.15,0 0.15,0 0.15,0"
       id="path1424" /><path
       fill="#000000"
       d="m 606.38,336 c 0,0 -0.72,0.64 -1.17,0.76 -1.11,0.29 -2.21,0.59 -3.32,0.88 -1.83,0.49 -3.67,1.03 -5.59,0.76 -3.66,-0.51 -8.88,-4.66 -7.4,-8.9 0.41,-1.19 1.83,-2.99 3,-3.41 0.32,-0.11 2,-0.77 2,0.11 0,0.25 -1.64,0.46 -2,0.7 -1.03,0.7 -2.06,2.04 -2.3,3.3 -0.22,1.17 0.33,2.18 0.76,3.22 2.55,6.12 10.42,3.67 14.94,2.41 0.1,-0.03 0.66,-0.36 0.9,-0.23 0.45,0.23 0.08,0.81 -0.2,0.92"
       id="path1426" /><path
       fill="#000000"
       d="m 641.9,337.7 c 0,0 -1.05,1.05 -1.57,1.57 -0.78,0.78 -1.16,1.74 -1.79,2.61 -2.06,2.86 -4.38,5.61 -6.64,8.3 -6.24,7.41 -11.83,14.83 -20.37,19.72 -3.03,1.73 -6.78,3.15 -10.03,2.9 -2.04,-0.16 -4.08,-1.15 -5.56,-2.53 -1.32,-1.24 -3.01,-3.02 -3.74,-5.07 -2.18,-6.11 3.17,-15.14 5.73,-20.26 0.58,-1.17 1.35,-2.24 2.05,-3.33 1.2,-1.89 2.83,-3.22 4.64,-4.45 0.08,-0.06 0.85,0.24 0.68,0.44 -0.1,0.1 -1.74,1.23 -2.42,1.94 -1.69,1.76 -2.83,3.08 -4.08,5.26 -3.15,5.52 -5.14,11.42 -6.18,17.6 -0.02,0.1 0.13,1.23 0.2,1.8 0.17,1.28 1.97,4.51 2.38,4.4 0.29,-0.08 2.79,2.26 3.1,2.4 2.38,1.08 4.17,1.25 6.4,0.8 4.38,-0.88 8.45,-3.7 11.81,-6.48 6.42,-5.31 11.16,-11.65 16.39,-18.12 1.94,-2.4 4.07,-4.48 5.75,-7.12 0.05,-0.08 0.46,-0.79 0.74,-1.07 0.6,-0.6 1.21,-1.21 1.81,-1.81 0.1,-0.1 0.71,-0.42 0.8,-0.2 0.37,0.85 -1.71,2.31 -1.96,2.56 m 1.86,-1.86 c 0,0 0,0 0,0 0,0 0.1,0 0.1,0"
       id="path1428" /><path
       sodipodi:nodetypes="ccccccccccccccc"
       fill="#000000"
       d="m 603.17,301.3 c 0,0 0.04,3.5 -0.97,3.1 -0.84,-0.34 0.11,-2.67 0.2,-3.4 0.11,-0.91 -0.98,-2.49 -1.4,-3.1 -4.32,-6.25 -10.7,-11.02 -18.1,-12.58 -1.16438,-0.4171 -2.1302,-0.54772 -2.5,-1.52 0.07,-0.12 0.72,-0.08 0.8,0 7.90567,1.82506 13.64941,6.50537 18.68,11.58 1.35,1.35 3.32,3.69 3.32,5.7 M 580.6,284.4 v 0 m 2.2,0.9 v 0 m 20.4,15.9 v 0"
       id="path1430" /><path
       sodipodi:nodetypes="ccccccsccccccc"
       fill="#000000"
       d="m 613.5,314.8 c 0,-0.2 -5.04,-1.63 -5.4,-1.9 -0.71,-0.53 -1.41,-1.09 -2.11,-1.63 -1.98,-1.52 -3.31,-3.62 -4.63,-5.68 -0.32,-0.5 -0.87,-1.55 -0.46,-2.09 0.3,-0.39 0.6,-1.02 1,-1.3 0.29,-0.2 1.17,-0.17 0.7,0.3 -0.1,0.1 -0.73,0.98 -1.04,1.42 -0.06,0.08 0.35,1.02 0.56,1.49 0.38,0.89 1.11,1.64 1.66,2.42 1.6,2.26 4.48604,3.59995 6.73604,5.13995 0.08,0.06 2.01396,0.59005 1.78396,0.63005 m 0,0 -1.2,1"
       id="path1432" /><path
       sodipodi:nodetypes="ccscccccccccsccccssccccccc"
       fill="#000000"
       d="m 641.89,331.1 c 0,0 0.03,1.03 -0.18,1.49 -0.73,1.59 -1.42,2.02 -2.88,3.48 -0.14,0.14 -0.49,0.61 -0.73,0.53 1.82847,2.00528 4.92757,4.25665 2.00378,1.20227 1.15,-1.03 0.53622,-4.20227 0.85622,-5.80227 0.59,-2.97 -2.01,-7.03 -3.16,-8.9 -3.31,-5.37 -11.56,-10.68 -18.1,-9.49 -1.23,0.22 -4.44,0.53 -5.4,1.49 -0.1,0 -0.1,0.1 -0.1,0.1 0,-0.1 -0.12,0.06 -0.2,0.1 h -0.1 v 0 c -0.1,0 -0.35,-0.01 -0.4,-0.1 0,-0.1 -0.84,-0.61 -1.3,-0.77 -0.1,-0.03 0.31,0.14 0,0 -0.1,-0.1 -1.15,-0.86 -0.9,-0.73 0.1,0.1 0.63,-0.1 0.9,-0.1 0.1,0 1.28,0.38 1.7,0.8 0.1,0.1 2.23,-1.02 3.4,-1.22 2.68,-0.44 5.28,-0.89 7.9,0.02 7.79,2.71 17.28,9.74 16.61,19.1 M 612.3,313.6 v 0 m 1.2,1.2 v 0.1"
       id="path1434" /><path
       fill="#000000"
       d="m 642.38,336.4 c 0,0 -0.17,0.73 -0.26,1.1 -0.18,0.78 -0.48,1.4 -0.76,2.1 -0.09,0.23 -0.51,1.05 -0.76,0.8 -0.1,-0.1 -1.12,-1.57 -1.06,-2.4 0.1,-1.55 1.2,-2.57 1.72,-4 0.04,-0.1 0.06,-0.57 0.24,-0.6 0.36,-0.06 0.45,0.81 0.35,1 -0.05,0.1 0.22,0.9 0.35,1.3 0.22,0.67 0.08,1.12 -0.08,1.8 m -0.72,-2.1 c 0,0 -0.95,0.97 -1.1,1.6 -0.15,0.64 0.27,1.54 0.38,2.2 0.02,0.1 0.33,-0.99 0.52,-1.53 0.22,-0.62 0.45,-1.53 0.23,-2.17 m -0.83,4.1 c 0,0 0,0 0,0 0,0 0,0 0,0"
       id="path1436" /><path
       fill="#000000"
       d="m 592.39,293.5 c 0,0 -0.32,1.5 -0.78,2.09 -0.97,1.27 -2.58,2.5 -4.11,2.89 -0.1,0.02 -0.15,0.12 -0.2,0.12 -0.1,-0.1 -0.34,-0.11 -0.37,-0.2 -0.03,-0.1 -0.03,-0.17 -0.03,-0.2 0,0 2.66,-1.62 3.71,-2.74 0.17,-0.18 1.46,-1.39 0.99,-1.86 -1.9,-1.9 -3.12,-2.77 -6,-2.3 -0.61,0.1 -1.14,0.5 -1.77,0.5 -0.13,0 -0.64,-0.56 -0.43,-0.7 0.1,0 1.95,-1.07 2.88,-1.6 0.15,-0.09 0.42,-0.47 0.42,-0.3 0.1,0.1 0.48,-0.4 0.7,-0.3 0.31,0.14 0.12,0.5 0.04,0.7 -0.04,0.1 -0.92,0.6 -1.35,0.85 -0.09,0.05 1.03,0.05 1.58,0.05 0.74,0 1.55,0.18 2.23,0.5 2.36,1.12 3.09,2.8 1.52,4.84 M 583.8,291 c 0,0 0,0 0,0 m 3.6,-1.3 c 0,0 0,0 0,0 0,0 0,0 0,0"
       id="path1438" /><path
       fill="#000000"
       d="m 587.9,298.5 c 0,0 -0.61,-0.2 -0.83,-0.42 -1.15,-1.12 -2.29,-2.24 -3.44,-3.36 -0.22,-0.21 -0.77,-0.68 -0.43,-1.02 0.38,-0.38 1.59,0.79 1.87,1.1 0.84,0.95 1.69,1.9 2.53,2.85 0.13,0.15 0.75,1.13 0.1,0.92"
       id="path1440" /><path
       fill="#000000"
       d="m 591.68,303.8 c 0,0 -0.02,0.7 -0.18,1 -0.12,0.23 -3.25,4.15 -4,3.4 -0.57,-0.57 3.16,-3.32 3.3,-3.6 1.3,-2.66 -4.12,-3.1 -5.5,-2.82 -0.1,0.02 -1.78,1.24 -2.1,0.62 -0.4,-0.76 1.73,-1.34 2.1,-1.47 0.1,-0.03 1.11,-0.72 1.7,-0.83 0.38,-0.07 0.54,0.38 0.2,0.55 -0.1,0.05 1.34,0.37 2.03,0.63 0.91,0.35 2.29,1.34 2.47,2.42 0.28,1.7 -2.77,3.67 -3.36,4.26"
       id="path1442" /><path
       fill="#000000"
       d="m 587.9,307.2 c 0,0 -0.78,-0.06 -1.06,-0.29 -1.26,-1.07 -2.52,-2.15 -3.78,-3.22 -0.22,-0.18 -0.64,-0.43 -0.46,-0.79 0.25,-0.5 0.83,0.1 1.06,0.3 0.89,0.79 2.07,1.73 2.99,2.65 0.17,0.17 1.54,1.26 1.15,1.52"
       id="path1444" /><path
       fill="#000000"
       d="m 579.24,293.68 c 0,0 -0.59,0.83 -0.88,1.24 -0.59,0.82 -2.69,2.17 -3.46,1.98 -0.45,-0.11 -1.22,-0.27 -1.4,-0.8 -0.28,-0.85 0.87,-0.19 1.11,-0.05 0.09,0.05 1.45,-0.58 2.13,-0.89 0.78,-0.36 1.16,-1.01 1.7,-1.68 0.06,-0.08 -0.44,-0.63 -0.7,-0.9 -0.49,-0.55 -1.04,-1.16 -1.64,-1.58 -0.19,-0.13 -1.72,-0.72 -0.9,-1.1 0.98,-0.45 4.24,2.88 4.1,3.7 -0.25,1.54 -3.5,2.8 -4.22,3.2 m 3.42,-3.4 c 0,0 0,0 0,0"
       id="path1446" /><path
       fill="#000000"
       d="m 575.4,289.3 c 0,0 -0.12,0.16 -0.2,0.2 -0.1,0 -0.6,0.32 -0.87,0.43 -0.78,0.31 -1.53,0.6 -2.33,0.85 -0.27,0.08 -1.55,0.57 -1.4,0.92 0.79,1.89 1.56,2.23 3.36,3.97 0.13,0.13 0.63,0.5 0.54,0.73 -0.06,0.15 -0.45,0.26 -0.6,0.2 -0.5,-0.21 -4.69,-3.63 -4,-5.4 0.52,-1.35 5.5,-2.37 5.5,-2.02 0,0.12 0.1,0.12 0.1,0.12"
       id="path1448" /><path
       fill="#000000"
       d="m 578.89,301.4 c 0,0 0.04,0.69 -0.09,1 -0.2,0.5 -0.78,1.15 -1.2,1.5 -0.54,0.46 -2.08,1.39 -2.9,1 -0.36,-0.17 -0.12,-0.6 0.2,-0.6 0.1,0 2.95,-1.11 3.3,-2.4 0.61,-2.26 -3.1,-2.94 -4.5,-2.34 -0.1,0.04 -1.5,0.41 -1.5,-0.06 0,-0.37 0.84,-0.56 1.1,-0.66 0.1,-0.04 3.03,-1.03 2.57,-0.34 -0.07,0.1 0.66,0.33 1.03,0.44 0.55,0.17 1.28,0.89 1.6,1.36 0.91,1.34 0.07,2.39 -0.77,3.44 m -5.13,-4.64 c 0,0 0,0.1 0,0.1"
       id="path1450" /><path
       fill="#000000"
       d="m 575.7,304.3 c 0,0 -0.61,-0.21 -0.84,-0.42 -0.77,-0.75 -1.55,-1.51 -2.32,-2.26 -0.2,-0.19 -0.89,-0.79 -0.34,-1.02 1.51,-0.65 3.63,3.88 3.3,3.77"
       id="path1452" /><path
       fill="#000000"
       d="m 574.6,308.83 c 0,0 -2.83,-0.85 -4.15,-1.5 -3.29,-1.6 -5.16,-2.96 -7.55,-5.68 -1.27,-1.44 -1.87,-3.19 -2.09,-5.05 -0.05,-0.43 0.85,-1.8 1.39,-1.4 0.35,0.26 -0.26,0.76 -0.42,0.93 -0.08,0.07 -0.24,0.87 -0.18,1.27 0.09,0.59 0.43,1.38 0.76,1.89 1.36,2.1 2.89,4.33 5.04,5.71 1.82,1.17 3.54,1.39 5.3,2.2 0.16,0.07 2.44,1.72 1.8,1.93"
       id="path1454" /><path
       fill="#000000"
       d="m 596.29,314.8 c 0,0 -0.21,1.91 -0.69,2.7 -0.86,1.41 -2.57,2.88 -4.4,2.8 -2.16,-0.09 -4.31,-3.42 -5.06,-5.1 -0.04,-0.1 -0.26,1.39 -0.84,1.7 -0.74,0.4 -0.35,-1.25 -0.31,-1.5 0.01,-0.1 0.44,-0.71 0.65,-1.02 0.06,-0.08 0.39,-2.36 1.16,-2.18 0.9,0.21 -0.62,1.16 -0.45,1.5 0.05,0.1 1.29,-0.68 1.9,-1.07 1.16,-0.76 3.08,-1.62 4.55,-1.43 3.01,0.38 3.97,3.77 2.89,6.11 M 585,315.3 c 0,0 0,0 0,0 m 10.45,-0.49 c 0,0 -0.37,-0.76 -0.56,-1.13 -0.3,-0.6 -1.4,-1.53 -2.09,-1.68 -2.01,-0.43 -4.49,1.52 -6,2.53 -0.1,0.07 0.36,0.96 0.65,1.38 0.8,1.18 2.18,3.55 3.85,3.59 3.49,0.08 5.43,-4.62 2.66,-6.77"
       id="path1456" /><path
       fill="#000000"
       d="m 593.56,320.09 c 0,0 -0.29,1.96 -1.06,2.31 -0.24,0.11 -1.14,-0.12 -1.4,-0.2 -3.41,-1.04 -7.3,-3.99 -7.3,-7.79 0,-0.11 0.3,-0.72 0.45,-1.02 0.05,-0.09 2.06,-1.39 3.06,-2.03 0.09,-0.06 1.34,-0.3 1.59,0.14 0.32,0.56 -0.55,0.47 -0.8,0.35 -0.1,-0.05 -1.13,0.52 -1.65,0.8 -1.28,0.7 -2.21,1.28 -1.85,2.85 0.81,3.54 4.49,4.96 7.5,6.06 0.1,0.04 0.79,-2.32 1.4,-1.86 0.45,0.34 -0.6,2.11 -0.89,2.53 m -8.81,-7.93 c 0,0 0,0 0,0 m 0.5,-1 c 0,0 0,0 0,0 m 3.1,-2 c 0,0 0,0 0,0"
       id="path1458" /><path
       sodipodi:nodetypes="ccccsccc"
       fill="#000000"
       d="m 587.05,318.6 c 0,0 -1.43,0.67 -2.07,1.14 -0.08,0.06 -0.51,0.27 -0.68,0.16 -0.29,-0.19 0.14,-0.67 0.3,-0.8 0.41,-0.34 1.56395,-0.65176 1.39307,-0.5297 -0.79993,0.57138 1.03473,0.004 1.00693,0.1297 m -2.3,0.6 h -0.1"
       id="path1460" /><path
       sodipodi:nodetypes="ccc"
       fill="#000000"
       d="m 588.78,319.9 c 0,0 -2.36,2.44 -2.38,1.5 -0.01,-0.49 2.14644,-1.9798 1.87644,-0.9198"
       id="path1462" /><path
       fill="#000000"
       d="m 587.03,321.5 c 0,0 -3.32,-1.04 -2.93,-2.2 0.26,-0.77 3.35,1.57 2.87,2.3"
       id="path1464" /><path
       fill="#000000"
       d="m 608.28,328.1 c 0,0 -0.07,0.91 -0.28,1.3 -0.48,0.88 -1.51,1.51 -2.23,2.23 -0.19,0.19 -0.07,1.3 -0.67,0.97 -0.58,-0.32 1.91,-2.75 2.2,-3.4 1.66,-3.75 -3.4,-5.7 -6.1,-5.7 -0.1,0 -0.1,0 -0.1,0 0,0 -0.59,0.31 -0.7,0.1 -0.13,-0.27 0.16,-0.68 0.4,-0.8 1.96,-0.95 5.25,0.71 6.4,2.3 1.97,2.74 0.75,4.35 -1.36,6.46"
       id="path1466" /><path
       fill="#000000"
       d="m 606.2,331.1 c 0,0 -0.56,0.52 -0.9,0.47 -1.03,-0.13 -1.84,-0.33 -2.7,-0.97 -1.26,-0.94 -5.85,-5.52 -3,-6.95 0.1,-0.05 0.83,-0.29 1.2,-0.42 0.56,-0.18 2.74,0.14 2.6,0.97 -0.12,0.71 -2.07,-0.09 -2.4,-0.18 -0.1,-0.02 -0.97,0.29 -1.4,0.44 -0.1,0.04 0.75,2.13 1.17,3.17 0.48,1.19 3.41,3.83 4.83,3.12 0.1,-0.05 0.59,-0.66 0.7,-0.45 0.25,0.47 -0.33,0.96 -0.63,1.18 m -6.27,-6.88 c 0,0 0,-0.07 0,-0.1 m 0.3,-0.9 c 0,0 0,0 0,0 m 6.5,7.5 c 0,0 0,0 0,0 0,0 0,0 0,0"
       id="path1468" /><path
       fill="#000000"
       d="m 605.8,332.38 c 0,0 -1.34,0.29 -2,0.17 -1.27,-0.23 -2.58,-1.09 -3.6,-1.85 -1.42,-1.06 -2.88,-2.71 -3.29,-4.5 -0.23,-1 -0.07,-2.11 1.09,-1.92 0.1,0.02 0.05,0.78 -0.2,0.72 -0.1,0 0.09,2.1 0.7,2.9 1.79,2.36 3.72,3.39 6.5,3.88 0.1,0.02 0.17,-1.11 0.5,-0.98 1.11,0.45 0.05,1.79 -0.7,1.88 m -7.1,-7.88 c 0,0 0,0.07 0,0.1 m 0.4,-0.6 c 0,0 0,0 0,0"
       id="path1470" /><path
       fill="#000000"
       d="m 597,328.5 c 0,0 -1.41,0.9 -2.12,1.35 -0.08,0.05 0.43,1.43 1.02,1.75 0.17,0.09 0.51,-0.05 0.7,0 0.3,0.08 0.38,0.44 0.1,0.6 -1.17,0.67 -2.89,-1.34 -2.7,-2.4 0.15,-0.82 1.98,-1.55 2.5,-1.9 0,0 0.74,0.05 0.7,0.3 -0.11,0.68 -1.85,1.35 -2.23,1.59 M 594.8,330 c 0,0 0,0 0,0 m 2.2,-1.5 c 0,0 0,0 0,0 0,0 0,0 0,0"
       id="path1472" /><path
       fill="#000000"
       d="m 598.85,329.8 c 0,0 -2.23,3.07 -2.95,2.1 -0.75,-1 3.26,-2.73 2.95,-2.1"
       id="path1474" /><path
       fill="#000000"
       d="m 633.68,323.2 c 0,0 -0.17,0.73 -0.25,1.1 -0.17,0.77 -0.53,1.21 -0.99,1.89 -0.91,1.36 -3.31,2.42 -4.94,1.71 -2.02,-0.88 -4.24,-5.66 -2.47,-7.43 0.07,-0.07 0.19,-0.29 0.27,-0.37 0.1,-0.1 0.37,-0.3 0.5,-0.4 0,0 1.3,-0.58 2,-0.6 1.47,-0.05 3.61,0.52 4.8,1.5 2.03,1.68 0.78,4.18 -0.39,5.93 m 0.63,-4.21 c 0,0 -0.63,-0.91 -1.09,-1.17 -1.1,-0.6 -2.34,-1.38 -3.65,-1.17 -0.1,0.02 -1.42,0.14 -2,0.42 -0.38,0.18 -0.8,1 -0.8,1 0,0 0.18,1.6 0.27,2.4 0.16,1.51 1.64,3.56 3.33,3.5 2.15,-0.07 4.58,-2.65 4,-4.9 -0.27,-1.03 -1.76,-1.58 -2.52,-2"
       id="path1476" /><path
       fill="#000000"
       d="m 636.06,336.19 c 0,0 -0.43,1.22 -0.9,1.61 -1.08,0.9 -2.41,1.55 -3.86,1 -1.62,-0.61 -3.92,-3.67 -2.29,-5.03 0.09,-0.07 0.76,-1.39 1.39,-1.67 1.45,-0.66 3.47,-0.18 4.6,0.9 1.86,1.79 1.07,4.04 -0.64,5.47 m 1,-2.67 c 0,0 -0.35,-1.6 -0.86,-2.2 -1.08,-1.26 -2.99,-1 -4.3,-0.5 0,0 0.81,0.16 0.7,0.4 -0.2,0.43 -1.35,0.9 -1.72,1.14 -0.08,0.06 0.47,1.53 0.92,2.16 0.7,0.99 2.15,1.78 3.4,1.3 2.78,-1.06 1.79,-4.05 -0.23,-5.2"
       id="path1478" /><path
       fill="#000000"
       d="m 623.2,332.73 c 0,0 -0.14,0.79 -0.27,1.17 -0.22,0.68 -0.78,1.55 -1.33,2 -0.95,0.77 -2.66,0.79 -3.8,0.6 -1.28,-0.22 -3.05,-2.92 -2.7,-4.2 0.17,-0.63 1.01,-1.21 1.43,-1.72 0.07,-0.08 0.2,-0.12 0.27,-0.15 0.1,-0.03 0.33,-0.5 0.45,-0.73 0.05,-0.1 0.68,-0.53 1.05,-0.6 0.56,-0.11 1.37,0.08 1.87,0.32 1.96,0.91 3.41,2.53 2.7,4.68 m -0.43,-1.48 c 0,0 -0.82,-1.22 -1.34,-1.72 -0.95,-0.92 -2.11,-1.17 -3.3,-0.64 -0.1,0.04 -0.1,0.11 -0.1,0.14 0,0 -1.77,1.18 -1.8,2.1 -0.03,0.93 0.92,2.5 1.72,3.13 0.08,0.07 1.08,0.17 1.58,0.25 0.1,0.02 0.97,-0.23 1.4,-0.39 0.7,-0.26 1.28,-1 1.6,-1.69 0.72,-1.57 -0.85,-2.72 -2.03,-3.58 m -3.57,0.28 c 0,0 0,0 0,0 m 0.7,-0.9 c 0,0 0,0 0,0"
       id="path1480" /><path
       fill="#000000"
       d="m 621.08,324 c 0,0 -0.46,1.43 -0.91,2.01 -0.74,0.97 -2.35,1.6 -3.57,1.19 -2.74,-0.92 -4.04,-3.92 -2.65,-6.31 0.05,-0.09 0.18,-0.51 0.35,-0.62 0.1,-0.07 0.52,-0.67 0.8,-0.59 0.1,0.02 0.75,-0.31 1.1,-0.4 0.75,-0.17 1.51,-0.12 2.2,0.32 2.52,1.6 3.28,4.46 1.52,6.74 m 0.33,-2.43 c 0,0 -0.97,-1.72 -1.45,-2.58 -0.58,-1.02 -1.35,-1.51 -2.5,-1.25 -0.1,0.02 -0.57,0.33 -0.8,0.25 -0.1,-0.03 -0.23,0.06 -0.3,0.1 -0.1,0.07 -1.28,1.51 -1.3,2.37 -0.02,0.88 0.78,2.24 1.4,2.8 2.04,1.84 4.06,0.66 4.96,-1.51"
       id="path1482" /><path
       fill="#000000"
       d="m 625,349.1 c 0,0 -0.52,0.29 -0.8,0.29 -2.58,-0.06 -3.25,0.15 -5.23,-0.58 -4.41,-1.62 -8.49,-4.96 -10.59,-9.16 -0.41,-0.81 -1.23,-2.76 -0.78,-3.65 0.43,-0.86 1.25,2.69 1.34,2.89 1.02,2.14 2.25,4.04 4.16,5.51 2.53,1.95 5.1,3.22 8.02,4.29 0.81,0.29 4.31,-0.04 3.88,0.61"
       id="path1484" /><path
       fill="#000000"
       d="m 578.4,322.2 c 0,0 -0.38,0.12 -0.5,0 -0.1,-0.1 -0.08,-0.02 -0.1,0 -0.1,0 -0.97,-0.12 -1.4,-0.19 -0.83,-0.11 -1.67,-0.22 -2.5,-0.33 -1.92,-0.26 -3.84,-0.37 -5.8,-0.45 -0.37,-0.02 -1.48,-0.29 -1.7,-0.18 -0.1,0.05 -0.88,0.03 -0.9,-0.25 -0.02,-0.29 0.42,-0.34 0.6,-0.38 0.1,-0.02 1.83,0.2 2.7,0.14 1.85,-0.1 3.77,0.15 5.6,0.43 1,0.16 2,0.31 3,0.46 0.23,0.04 1.78,0.5 0.9,0.85 m -12.1,-1.9 c 0,0 0,0 0,0 m 11.5,1.8 c 0,0 0,0 0,0 0,0 0.1,0.1 0.1,0.1"
       id="path1486" /><path
       fill="#000000"
       d="m 589,330.2 c 0,0 -0.51,0.08 -0.6,-0.1 -0.1,-0.1 -0.68,-0.54 -0.97,-0.77 -1.55,-1.22 -3.11,-2.44 -4.66,-3.66 -0.19,-0.15 -0.62,-0.36 -0.47,-0.67 0.21,-0.41 0.65,0.09 0.89,0.26 1.54,1.13 3.08,2.25 4.62,3.38 0.44,0.32 1.76,1.16 1.09,1.66"
       id="path1488" /><path
       sodipodi:nodetypes="ccc"
       fill="#000000"
       d="m 600.34233,343.44801 c 0,0 -7.39711,-9.41947 -5.76129,-5.56486 3.62143,3.61886 2.69354,3.99722 5.76129,5.56486"
       id="path1490" /></g></svg>
