<?xml version="1.0" encoding="UTF-8" standalone="no"?>
<svg
   xmlns:dc="http://purl.org/dc/elements/1.1/"
   xmlns:cc="http://creativecommons.org/ns#"
   xmlns:rdf="http://www.w3.org/1999/02/22-rdf-syntax-ns#"
   xmlns:svg="http://www.w3.org/2000/svg"
   xmlns="http://www.w3.org/2000/svg"
   xmlns:sodipodi="http://sodipodi.sourceforge.net/DTD/sodipodi-0.dtd"
   xmlns:inkscape="http://www.inkscape.org/namespaces/inkscape"
   xml:space="preserve"
   version="1.1"
   width="136.08879"
   height="147.27888"
   id="svg106"
   sodipodi:docname="trainerscolour.svg"
   inkscape:version="1.0 (4035a4f, 2020-05-01)"><metadata
     id="metadata112"><rdf:RDF><cc:Work
         rdf:about=""><dc:format>image/svg+xml</dc:format><dc:type
           rdf:resource="http://purl.org/dc/dcmitype/StillImage" /><dc:title></dc:title></cc:Work></rdf:RDF></metadata><defs
     id="defs110" /><sodipodi:namedview
     inkscape:document-rotation="0"
     pagecolor="#ffffff"
     bordercolor="#666666"
     borderopacity="1"
     objecttolerance="10"
     gridtolerance="10"
     guidetolerance="10"
     inkscape:pageopacity="0"
     inkscape:pageshadow="2"
     inkscape:window-width="1792"
     inkscape:window-height="1120"
     id="namedview108"
     showgrid="false"
     fit-margin-top="0.2"
     fit-margin-right="0.2"
     fit-margin-bottom="0.2"
     fit-margin-left="0.2"
     inkscape:zoom="7.6923364"
     inkscape:cx="28.310351"
     inkscape:cy="116.73751"
     inkscape:window-x="0"
     inkscape:window-y="0"
     inkscape:window-maximized="0"
     inkscape:current-layer="layer2" /><g
     inkscape:label="colour"
     id="layer2"
     inkscape:groupmode="layer"><path
       style="fill:#7ccad5;fill-opacity:1;stroke:none;stroke-width:1px;stroke-linecap:butt;stroke-linejoin:miter;stroke-opacity:1"
       d="m 76.49886,115.06728 c 1.40509,-7.5667 0.52795,-16.250448 -5.82714,-21.450065 -0.84581,-0.69203 -8.88078,-4.915708 -10.35158,-4.64829 -5.359749,3.641402 -6.347862,6.075642 -11.133241,8.740634 -1.300153,3.379241 -5.963629,6.549511 -9.207789,8.866761 -0.722464,0.51605 -0.08286,5.46144 -0.85897,5.89261 -4.441862,2.46769 -6.59694,2.91528 -11.418073,1.95105 -0.157641,-0.0315 -0.180406,-0.34772 -0.341029,-0.34103 -6.71424,0.27976 -12.429694,0.86644 -18.0745381,4.77441 -1.189599,0.82357 -1.97072,2.12765 -3.069261,3.06926 -1.294642,1.10969 -2.817906,1.93642 -4.092348,3.06926 -3.00996602,2.67553 -5.707708,8.69926 -1.36411602,11.59499 0.68858502,0.45905 1.60209602,0.42035 2.38720302,0.68206 0.738425,0.24614 2.038781,1.57021 4.774406,1.02308 3.7371161,-0.74742 8.5797101,1.6064 12.2770451,0.68206 3.586043,-0.89651 5.189336,-0.21631 8.866754,0 2.095055,0.12324 7.502638,-1.36412 7.502638,-1.36412 3.830036,0.85732 9.907669,1.26382 14.664249,-0.68205 6.77646,-2.77219 11.02682,-8.73912 15.68733,-13.98219 1.9811,-2.22873 3.92419,-4.13792 5.7975,-6.47955 5.67202,-7.09003 -0.55805,0.55804 3.41029,-3.41029 0.17973,-0.17974 0.16129,-0.50232 0.34103,-0.68206 0.40878,-0.40879 1.10454,0.35163 1.62964,0.59347"
       id="path3937"
       sodipodi:nodetypes="csccscccssssssssssssssc" /><path
       sodipodi:nodetypes="cssssssssssssccc"
       id="path3955"
       d="m 114.25412,34.286867 c -7.60149,0.754645 -6.96688,-0.234082 -14.33262,4.249411 -3.296115,2.006331 -0.794001,9.487237 -1.023087,12.618074 -0.199095,2.720957 0.473955,6.141762 0.341029,8.866754 -0.09481,1.943514 -3.36166,0.100956 0.341029,6.138522 1.368159,2.230909 -0.53798,5.575092 -0.341029,8.184696 0.62458,8.27568 4.180698,12.924601 6.479548,21.484828 0.34383,1.280318 0,0 2.04618,7.502638 1.03655,3.80069 -0.92332,1.84459 2.04617,4.43338 3.3892,2.95468 8.7636,4.97533 13.64116,4.43338 5.60499,-0.62278 5.87029,0.49808 4.77441,-4.43338 -0.34347,-1.54563 -1.27823,-2.90869 -1.70515,-4.43338 -0.37288,-1.33171 -0.4451,-2.72987 -0.68206,-4.092348 -0.21776,-1.252145 -0.7726,-2.483609 -0.68205,-3.751319 -0.1935,-18.423624 -0.45651,-30.877153 -1e-5,-46.379945 -0.37265,-14.186166 1.3325,-15.209253 -10.90352,-14.821311 z"
       style="fill:#c481a7;fill-opacity:1;stroke:none;stroke-width:1px;stroke-linecap:butt;stroke-linejoin:miter;stroke-opacity:1" /><path
       id="path3957"
       d="m 129.68006,110.35102 c -0.63773,-0.63772 -1.1595,-1.48639 -1.1595,-1.88593 0,-0.39954 -0.40138,-1.68009 -0.89197,-2.84565 -1.94331,-4.61711 -2.11326,-7.075625 -2.22136,-32.133652 -0.11068,-25.656528 0.0503,-33.825057 0.72684,-36.886491 0.46391,-2.099194 0.46654,-2.102462 2.36329,-2.936499 3.43721,-1.511412 3.55648,-1.499981 4.81517,0.461508 l 1.10907,1.728336 -0.23322,6.027985 c -0.12827,3.315392 -0.62633,10.631877 -1.1068,16.258855 -1.05327,12.335098 -0.97068,19.239377 0.3794,31.715698 0.94131,8.69887 1.44721,17.88816 1.06798,19.39913 -0.24199,0.96416 -1.98982,2.25278 -3.0585,2.25494 -0.347,6.8e-4 -1.15268,-0.5205 -1.7904,-1.15823 z"
       style="opacity:0;fill:#c481a7;fill-opacity:1;stroke:none;stroke-width:0.341029;stroke-opacity:1" /><path
       id="path3959"
       d="m 129.68006,110.35102 c -0.63773,-0.63772 -1.1595,-1.48639 -1.1595,-1.88593 0,-0.39954 -0.40138,-1.68009 -0.89197,-2.84565 -1.94331,-4.61711 -2.11326,-7.075625 -2.22136,-32.133652 -0.11068,-25.656528 0.0503,-33.825057 0.72684,-36.886491 0.46391,-2.099194 0.46654,-2.102462 2.36329,-2.936499 3.43721,-1.511412 3.55648,-1.499981 4.81517,0.461508 l 1.10907,1.728336 -0.23322,6.027985 c -0.12827,3.315392 -0.62633,10.631877 -1.1068,16.258855 -1.05327,12.335098 -0.97068,19.239377 0.3794,31.715698 0.94131,8.69887 1.44721,17.88816 1.06798,19.39913 -0.24199,0.96416 -1.98982,2.25278 -3.0585,2.25494 -0.347,6.8e-4 -1.15268,-0.5205 -1.7904,-1.15823 z"
       style="opacity:0;fill:#ff6600;fill-opacity:1;stroke:none;stroke-width:0.341029;stroke-opacity:1" /><path
       id="path3961"
       d="m 129.68006,110.35102 c -0.63773,-0.63772 -1.1595,-1.48639 -1.1595,-1.88593 0,-0.39954 -0.40138,-1.68009 -0.89197,-2.84565 -1.94331,-4.61711 -2.11326,-7.075625 -2.22136,-32.133652 -0.11068,-25.656528 0.0503,-33.825057 0.72684,-36.886491 0.46391,-2.099194 0.46654,-2.102462 2.36329,-2.936499 3.43721,-1.511412 3.55648,-1.499981 4.81517,0.461508 l 1.10907,1.728336 -0.23322,6.027985 c -0.12827,3.315392 -0.62633,10.631877 -1.1068,16.258855 -1.05327,12.335098 -0.97068,19.239377 0.3794,31.715698 0.94131,8.69887 1.44721,17.88816 1.06798,19.39913 -0.24199,0.96416 -1.98982,2.25278 -3.0585,2.25494 -0.347,6.8e-4 -1.15268,-0.5205 -1.7904,-1.15823 z"
       style="opacity:0;fill:#ff6600;fill-opacity:1;stroke:none;stroke-width:0.341029;stroke-opacity:1" /><path
       id="path3963"
       d="m 129.68006,110.35102 c -0.63773,-0.63772 -1.1595,-1.48639 -1.1595,-1.88593 0,-0.39954 -0.40138,-1.68009 -0.89197,-2.84565 -1.94331,-4.61711 -2.11326,-7.075625 -2.22136,-32.133652 -0.11068,-25.656528 0.0503,-33.825057 0.72684,-36.886491 0.46391,-2.099194 0.46654,-2.102462 2.36329,-2.936499 3.43721,-1.511412 3.55648,-1.499981 4.81517,0.461508 l 1.10907,1.728336 -0.23322,6.027985 c -0.12827,3.315392 -0.62633,10.631877 -1.1068,16.258855 -1.05327,12.335098 -0.97068,19.239377 0.3794,31.715698 0.94131,8.69887 1.44721,17.88816 1.06798,19.39913 -0.24199,0.96416 -1.98982,2.25278 -3.0585,2.25494 -0.347,6.8e-4 -1.15268,-0.5205 -1.7904,-1.15823 z"
       style="opacity:0;fill:#ff6600;fill-opacity:1;stroke:none;stroke-width:0.341029;stroke-opacity:1" /><path
       id="path3965"
       d="m 129.68006,110.35102 c -0.63773,-0.63772 -1.1595,-1.48639 -1.1595,-1.88593 0,-0.39954 -0.40138,-1.68009 -0.89197,-2.84565 -1.94331,-4.61711 -2.11326,-7.075625 -2.22136,-32.133652 -0.11068,-25.656528 0.0503,-33.825057 0.72684,-36.886491 0.46391,-2.099194 0.46654,-2.102462 2.36329,-2.936499 3.43721,-1.511412 3.55648,-1.499981 4.81517,0.461508 l 1.10907,1.728336 -0.23322,6.027985 c -0.12827,3.315392 -0.62633,10.631877 -1.1068,16.258855 -1.05327,12.335098 -0.97068,19.239377 0.3794,31.715698 0.94131,8.69887 1.44721,17.88816 1.06798,19.39913 -0.24199,0.96416 -1.98982,2.25278 -3.0585,2.25494 -0.347,6.8e-4 -1.15268,-0.5205 -1.7904,-1.15823 z"
       style="opacity:0;fill:#ff6600;fill-opacity:1;stroke:none;stroke-width:0.341029;stroke-opacity:1" /><path
       id="path3967"
       d="m 129.68006,110.35102 c -0.63773,-0.63772 -1.1595,-1.48639 -1.1595,-1.88593 0,-0.39954 -0.40138,-1.68009 -0.89197,-2.84565 -1.94331,-4.61711 -2.11326,-7.075625 -2.22136,-32.133652 -0.11068,-25.656528 0.0503,-33.825057 0.72684,-36.886491 0.46391,-2.099194 0.46654,-2.102462 2.36329,-2.936499 3.43721,-1.511412 3.55648,-1.499981 4.81517,0.461508 l 1.10907,1.728336 -0.23322,6.027985 c -0.12827,3.315392 -0.62633,10.631877 -1.1068,16.258855 -1.05327,12.335098 -0.97068,19.239377 0.3794,31.715698 0.94131,8.69887 1.44721,17.88816 1.06798,19.39913 -0.24199,0.96416 -1.98982,2.25278 -3.0585,2.25494 -0.347,6.8e-4 -1.15268,-0.5205 -1.7904,-1.15823 z"
       style="opacity:0;fill:#ff6600;fill-opacity:1;stroke:none;stroke-width:0.341029;stroke-opacity:1" /><path
       id="path3969"
       d="m 129.68006,110.35102 c -0.63773,-0.63772 -1.1595,-1.48639 -1.1595,-1.88593 0,-0.39954 -0.40138,-1.68009 -0.89197,-2.84565 -1.94331,-4.61711 -2.11326,-7.075625 -2.22136,-32.133652 -0.11068,-25.656528 0.0503,-33.825057 0.72684,-36.886491 0.46391,-2.099194 0.46654,-2.102462 2.36329,-2.936499 3.43721,-1.511412 3.55648,-1.499981 4.81517,0.461508 l 1.10907,1.728336 -0.23322,6.027985 c -0.12827,3.315392 -0.62633,10.631877 -1.1068,16.258855 -1.05327,12.335098 -0.97068,19.239377 0.3794,31.715698 0.94131,8.69887 1.44721,17.88816 1.06798,19.39913 -0.24199,0.96416 -1.98982,2.25278 -3.0585,2.25494 -0.347,6.8e-4 -1.15268,-0.5205 -1.7904,-1.15823 z"
       style="opacity:0;fill:#ff6600;fill-opacity:1;stroke:none;stroke-width:0.341029;stroke-opacity:1" /><path
       id="path3971"
       d="m 129.68006,110.35102 c -0.63773,-0.63772 -1.1595,-1.48639 -1.1595,-1.88593 0,-0.39954 -0.40138,-1.68009 -0.89197,-2.84565 -1.94331,-4.61711 -2.11326,-7.075625 -2.22136,-32.133652 -0.11068,-25.656528 0.0503,-33.825057 0.72684,-36.886491 0.46391,-2.099194 0.46654,-2.102462 2.36329,-2.936499 3.43721,-1.511412 3.55648,-1.499981 4.81517,0.461508 l 1.10907,1.728336 -0.23322,6.027985 c -0.12827,3.315392 -0.62633,10.631877 -1.1068,16.258855 -1.05327,12.335098 -0.97068,19.239377 0.3794,31.715698 0.94131,8.69887 1.44721,17.88816 1.06798,19.39913 -0.24199,0.96416 -1.98982,2.25278 -3.0585,2.25494 -0.347,6.8e-4 -1.15268,-0.5205 -1.7904,-1.15823 z"
       style="opacity:0;fill:#ff6600;fill-opacity:1;stroke:none;stroke-width:0.341029;stroke-opacity:1" /><path
       id="path3973"
       d="m 129.68006,110.35102 c -0.63773,-0.63772 -1.1595,-1.48639 -1.1595,-1.88593 0,-0.39954 -0.40138,-1.68009 -0.89197,-2.84565 -1.94331,-4.61711 -2.11326,-7.075625 -2.22136,-32.133652 -0.11068,-25.656528 0.0503,-33.825057 0.72684,-36.886491 0.46391,-2.099194 0.46654,-2.102462 2.36329,-2.936499 3.43721,-1.511412 3.55648,-1.499981 4.81517,0.461508 l 1.10907,1.728336 -0.23322,6.027985 c -0.12827,3.315392 -0.62633,10.631877 -1.1068,16.258855 -1.05327,12.335098 -0.97068,19.239377 0.3794,31.715698 0.94131,8.69887 1.44721,17.88816 1.06798,19.39913 -0.24199,0.96416 -1.98982,2.25278 -3.0585,2.25494 -0.347,6.8e-4 -1.15268,-0.5205 -1.7904,-1.15823 z"
       style="opacity:0;fill:#ff6600;fill-opacity:1;stroke:none;stroke-width:0.341029;stroke-opacity:1" /><path
       id="path3975"
       d="m 11.015977,145.92195 c -0.07174,-0.11607 -0.958111,-0.29646 -1.9697225,-0.40087 -2.1696555,-0.22393 -4.9965667,-1.36623 -5.9584212,-2.40768 -0.4499468,-0.48718 -0.723386,-1.33739 -0.8008689,-2.49016 l -0.117653,-1.75041 4.9449207,-0.15947 c 3.2889409,-0.10606 5.9156669,-0.003 7.8436669,0.30793 2.295163,0.37007 3.394103,0.38583 5.277724,0.0757 1.499495,-0.24691 3.842109,-0.30615 6.336714,-0.16023 3.087064,0.18057 4.494651,0.10938 6.398335,-0.32361 2.117068,-0.48152 3.343811,-0.50963 9.254089,-0.21207 4.382308,0.22064 7.237089,0.22608 8.000647,0.0153 2.881824,-0.79571 7.962389,-5.17261 13.910924,-11.98425 4.775334,-5.4682 6.599624,-7.19507 10.697709,-10.1264 3.947492,-2.82361 4.660802,-2.91777 7.908837,-1.04396 1.362861,0.78624 2.642979,1.73793 2.844708,2.11487 0.910874,1.70198 -0.986785,5.31829 -3.451535,6.57747 -2.253441,1.15122 -8.952086,6.02626 -13.126332,9.55286 -7.377109,6.23255 -9.25591,7.68465 -11.423193,8.82888 -3.987172,2.10504 -5.0394,2.26683 -14.159893,2.17729 -4.904038,-0.0481 -9.885699,0.0972 -12.444769,0.36319 -5.502627,0.57187 -19.796064,1.32048 -19.965887,1.0457 z"
       style="opacity:0;fill:#ff6600;fill-opacity:1;stroke:none;stroke-width:0.341029;stroke-opacity:1" /><path
       id="path3977"
       d="m 11.015977,145.92195 c -0.07174,-0.11607 -0.958111,-0.29646 -1.9697225,-0.40087 -2.1696555,-0.22393 -4.9965667,-1.36623 -5.9584212,-2.40768 -0.4499468,-0.48718 -0.723386,-1.33739 -0.8008689,-2.49016 l -0.117653,-1.75041 4.9449207,-0.15947 c 3.2889409,-0.10606 5.9156669,-0.003 7.8436669,0.30793 2.295163,0.37007 3.394103,0.38583 5.277724,0.0757 1.499495,-0.24691 3.842109,-0.30615 6.336714,-0.16023 3.087064,0.18057 4.494651,0.10938 6.398335,-0.32361 2.117068,-0.48152 3.343811,-0.50963 9.254089,-0.21207 4.382308,0.22064 7.237089,0.22608 8.000647,0.0153 2.881824,-0.79571 7.962389,-5.17261 13.910924,-11.98425 4.775334,-5.4682 6.599624,-7.19507 10.697709,-10.1264 3.947492,-2.82361 4.660802,-2.91777 7.908837,-1.04396 1.362861,0.78624 2.642979,1.73793 2.844708,2.11487 0.910874,1.70198 -0.986785,5.31829 -3.451535,6.57747 -2.253441,1.15122 -8.952086,6.02626 -13.126332,9.55286 -7.377109,6.23255 -9.25591,7.68465 -11.423193,8.82888 -3.987172,2.10504 -5.0394,2.26683 -14.159893,2.17729 -4.904038,-0.0481 -9.885699,0.0972 -12.444769,0.36319 -5.502627,0.57187 -19.796064,1.32048 -19.965887,1.0457 z"
       style="opacity:0;fill:#ff6600;fill-opacity:1;stroke:none;stroke-width:0.341029;stroke-opacity:1" /><path
       id="path3979"
       d="m 11.015977,145.92195 c -0.07174,-0.11607 -0.958111,-0.29646 -1.9697225,-0.40087 -2.1696555,-0.22393 -4.9965667,-1.36623 -5.9584212,-2.40768 -0.4499468,-0.48718 -0.723386,-1.33739 -0.8008689,-2.49016 l -0.117653,-1.75041 4.9449207,-0.15947 c 3.2889409,-0.10606 5.9156669,-0.003 7.8436669,0.30793 2.295163,0.37007 3.394103,0.38583 5.277724,0.0757 1.499495,-0.24691 3.842109,-0.30615 6.336714,-0.16023 3.087064,0.18057 4.494651,0.10938 6.398335,-0.32361 2.117068,-0.48152 3.343811,-0.50963 9.254089,-0.21207 4.382308,0.22064 7.237089,0.22608 8.000647,0.0153 2.881824,-0.79571 7.962389,-5.17261 13.910924,-11.98425 4.775334,-5.4682 6.599624,-7.19507 10.697709,-10.1264 3.947492,-2.82361 4.660802,-2.91777 7.908837,-1.04396 1.362861,0.78624 2.642979,1.73793 2.844708,2.11487 0.910874,1.70198 -0.986785,5.31829 -3.451535,6.57747 -2.253441,1.15122 -8.952086,6.02626 -13.126332,9.55286 -7.377109,6.23255 -9.25591,7.68465 -11.423193,8.82888 -3.987172,2.10504 -5.0394,2.26683 -14.159893,2.17729 -4.904038,-0.0481 -9.885699,0.0972 -12.444769,0.36319 -5.502627,0.57187 -19.796064,1.32048 -19.965887,1.0457 z"
       style="opacity:0;fill:#ff6600;fill-opacity:1;stroke:none;stroke-width:0.341029;stroke-opacity:1" /><path
       id="path3981"
       d="m 11.015977,145.92195 c -0.07174,-0.11607 -0.958111,-0.29646 -1.9697225,-0.40087 -2.1696555,-0.22393 -4.9965667,-1.36623 -5.9584212,-2.40768 -0.4499468,-0.48718 -0.723386,-1.33739 -0.8008689,-2.49016 l -0.117653,-1.75041 4.9449207,-0.15947 c 3.2889409,-0.10606 5.9156669,-0.003 7.8436669,0.30793 2.295163,0.37007 3.394103,0.38583 5.277724,0.0757 1.499495,-0.24691 3.842109,-0.30615 6.336714,-0.16023 3.087064,0.18057 4.494651,0.10938 6.398335,-0.32361 2.117068,-0.48152 3.343811,-0.50963 9.254089,-0.21207 4.382308,0.22064 7.237089,0.22608 8.000647,0.0153 2.881824,-0.79571 7.962389,-5.17261 13.910924,-11.98425 4.775334,-5.4682 6.599624,-7.19507 10.697709,-10.1264 3.947492,-2.82361 4.660802,-2.91777 7.908837,-1.04396 1.362861,0.78624 2.642979,1.73793 2.844708,2.11487 0.910874,1.70198 -0.986785,5.31829 -3.451535,6.57747 -2.253441,1.15122 -8.952086,6.02626 -13.126332,9.55286 -7.377109,6.23255 -9.25591,7.68465 -11.423193,8.82888 -3.987172,2.10504 -5.0394,2.26683 -14.159893,2.17729 -4.904038,-0.0481 -9.885699,0.0972 -12.444769,0.36319 -5.502627,0.57187 -19.796064,1.32048 -19.965887,1.0457 z"
       style="opacity:0;fill:#ff6600;fill-opacity:1;stroke:none;stroke-width:0.341029;stroke-opacity:1" /><path
       id="path3983"
       d="m 11.015977,145.92195 c -0.07174,-0.11607 -0.958111,-0.29646 -1.9697225,-0.40087 -2.1696555,-0.22393 -4.9965667,-1.36623 -5.9584212,-2.40768 -0.4499468,-0.48718 -0.723386,-1.33739 -0.8008689,-2.49016 l -0.117653,-1.75041 4.9449207,-0.15947 c 3.2889409,-0.10606 5.9156669,-0.003 7.8436669,0.30793 2.295163,0.37007 3.394103,0.38583 5.277724,0.0757 1.499495,-0.24691 3.842109,-0.30615 6.336714,-0.16023 3.087064,0.18057 4.494651,0.10938 6.398335,-0.32361 2.117068,-0.48152 3.343811,-0.50963 9.254089,-0.21207 4.382308,0.22064 7.237089,0.22608 8.000647,0.0153 2.881824,-0.79571 7.962389,-5.17261 13.910924,-11.98425 4.775334,-5.4682 6.599624,-7.19507 10.697709,-10.1264 3.947492,-2.82361 4.660802,-2.91777 7.908837,-1.04396 1.362861,0.78624 2.642979,1.73793 2.844708,2.11487 0.910874,1.70198 -0.986785,5.31829 -3.451535,6.57747 -2.253441,1.15122 -8.952086,6.02626 -13.126332,9.55286 -7.377109,6.23255 -9.25591,7.68465 -11.423193,8.82888 -3.987172,2.10504 -5.0394,2.26683 -14.159893,2.17729 -4.904038,-0.0481 -9.885699,0.0972 -12.444769,0.36319 -5.502627,0.57187 -19.796064,1.32048 -19.965887,1.0457 z"
       style="opacity:0;fill:#ff6600;fill-opacity:1;stroke:none;stroke-width:0.341029;stroke-opacity:1" /><path
       id="path3985"
       d="m 129.68006,110.35102 c -0.63773,-0.63772 -1.1595,-1.48639 -1.1595,-1.88593 0,-0.39954 -0.40138,-1.68009 -0.89197,-2.84565 -1.94331,-4.61711 -2.11326,-7.075625 -2.22136,-32.133652 -0.11068,-25.656528 0.0503,-33.825057 0.72684,-36.886491 0.46391,-2.099194 0.46654,-2.102462 2.36329,-2.936499 3.43721,-1.511412 3.55648,-1.499981 4.81517,0.461508 l 1.10907,1.728336 -0.23322,6.027985 c -0.12827,3.315392 -0.62633,10.631877 -1.1068,16.258855 -1.05327,12.335098 -0.97068,19.239377 0.3794,31.715698 0.94131,8.69887 1.44721,17.88816 1.06798,19.39913 -0.24199,0.96416 -1.98982,2.25278 -3.0585,2.25494 -0.347,6.8e-4 -1.15268,-0.5205 -1.7904,-1.15823 z"
       style="opacity:0;fill:#ff6600;fill-opacity:1;stroke:none;stroke-width:0.341029;stroke-opacity:1" /><path
       id="path3987"
       d="m 129.68006,110.35102 c -0.63773,-0.63772 -1.1595,-1.48639 -1.1595,-1.88593 0,-0.39954 -0.40138,-1.68009 -0.89197,-2.84565 -1.94331,-4.61711 -2.11326,-7.075625 -2.22136,-32.133652 -0.11068,-25.656528 0.0503,-33.825057 0.72684,-36.886491 0.46391,-2.099194 0.46654,-2.102462 2.36329,-2.936499 3.43721,-1.511412 3.55648,-1.499981 4.81517,0.461508 l 1.10907,1.728336 -0.23322,6.027985 c -0.12827,3.315392 -0.62633,10.631877 -1.1068,16.258855 -1.05327,12.335098 -0.97068,19.239377 0.3794,31.715698 0.94131,8.69887 1.44721,17.88816 1.06798,19.39913 -0.24199,0.96416 -1.98982,2.25278 -3.0585,2.25494 -0.347,6.8e-4 -1.15268,-0.5205 -1.7904,-1.15823 z"
       style="opacity:0;fill:#ff0000;fill-opacity:1;stroke:none;stroke-width:0.341029;stroke-opacity:1" /><rect
       y="32.738785"
       x="38.536278"
       height="16.028364"
       width="28.646437"
       id="rect3989"
       style="opacity:0;fill:#ff0000;fill-opacity:1;stroke:none;stroke-opacity:1" /><rect
       y="48.426121"
       x="23.531002"
       height="31.374668"
       width="55.58773"
       id="rect3991"
       style="opacity:0;fill:#ff0000;fill-opacity:1;stroke:none;stroke-opacity:1" /><path
       sodipodi:nodetypes="cscssccscc"
       id="path3993"
       d="m 125.16153,44.333771 c 0.42799,-2.258954 0.87491,-3.255043 1.0338,-5.456464 0.15249,-2.11264 0.0924,-3.333605 1.37841,-5.115435 1.00851,-1.397265 5.90875,-2.880824 6.89205,-1.023087 1.04716,1.978403 1.56222,4.251841 1.72301,6.479551 0.10721,1.485494 -1.5256,3.736122 -2.06762,5.115435 -1.66615,17.909269 0.01,41.15738 0,56.610819 0.24056,0.71418 2.55192,7.26626 1.05167,9.20778 -5.75414,7.44662 -10.27209,-9.14252 -10.35592,-12.959102 2.02123,-20.51135 -1.52277,-42.840213 0.3446,-52.859497 z"
       style="fill:#e85c90;fill-opacity:1;stroke:none;stroke-width:1.00523px;stroke-linecap:butt;stroke-linejoin:miter;stroke-opacity:1" /><path
       sodipodi:nodetypes="ccsccssccscsscsc"
       id="path3997"
       d="m 50.472294,138.11675 c 7.398174,-6.07513 22.173179,-21.14673 26.026566,-23.04947 2.658628,-2.06783 2.204832,-2.11993 6.030161,-1.16359 5.240491,1.31012 3.96164,7.18406 0.591119,10.76524 -10.020136,6.85969 -15.30049,10.48714 -25.145208,17.8812 -1.168685,1.11556 -2.409364,2.20939 -4.011318,2.41926 -4.397265,0.5761 -7.236582,1.27029 -11.578078,0.82721 -8.854611,-0.90367 -5.8036,-0.42206 -8.201605,-0.42206 -7.039043,0.9984 -13.273511,2.39957 -20.542771,1.60896 -6.1716502,-0.6672 -5.3005912,0.18208 -12.0811658,-4.7878 -1.96068903,-1.4371 1.7982278,-2.15151 0.4601458,-3.62678 2.5855,-0.5171 4.2107349,-1.06833 6.8466143,-1.13422 1.7208047,-0.043 10.5559567,0.11636 11.9360157,0.34102 7.465917,1.21538 11.906192,-0.14436 19.51737,-0.5068 0.729783,-0.0348 7.886244,1.62516 8.4301,1.17195 0.390545,-0.32546 1.494701,0.13058 1.722054,-0.32412 z"
       style="fill:#58efec;fill-opacity:1;stroke:none;stroke-width:1px;stroke-linecap:butt;stroke-linejoin:miter;stroke-opacity:1" /></g><g
     id="g104"
     transform="translate(-420.37986,-66.931075)"><path
       fill="#000000"
       d="m 507.58,185.2 c 0,0 -0.94,1.3 -0.48,1.3 0.15,0 -0.61,1.6 -0.66,1.72 -0.54,1.3 -1.65,2.25 -2.54,3.31 -0.2,0.23 -0.58,0.79 -0.9,0.47 -0.1,-0.1 -2.49,1.36 -3.69,2.09 -2.27,1.38 -4.67,3.45 -6.53,4.85 -3.58,2.7 -6.63,6.3 -10.39,8.8 -3.48,2.32 -6.67,4.44 -10.99,4.86 -3.46,0.34 -8.58,-0.46 -12,-0.3 -3.84,0.18 -8.54,0.58 -12.4,0.9 -2.85,0.24 -5.33,0.43 -8.3,0.57 -0.82,0.04 -3.06,-0.1 -2.7,0.03 0.29,0.1 -0.6,0.11 -0.9,0.16 -0.61,0.12 -1.43,-0.01 -2,-0.04 -1.58,-0.07 -4.33,0.06 -5.5,-0.52 -0.1,-0.1 -0.97,-0.33 -1.4,-0.44 -0.66,-0.18 -1.21,-0.49 -1.81,-0.81 -0.09,-0.05 -0.5,-0.54 -0.79,-0.65 -0.65,-0.24 -1.09,-1 -1.54,-1.52 -0.06,-0.08 -1.45,-5.98 0.24,-5.41 0.1,0.03 0.23,-0.06 0.3,-0.1 0.1,-0.07 1.37,-0.17 2,-0.08 2.05,0.29 3.85,0.2 5.9,0.07 5.74,-0.33 11.45,-0.05 17.2,-0.45 0.1,-0.01 0.77,-0.08 1.1,-0.11 0.71,-0.07 1.48,0.1 2.2,0.09 2.83,-0.07 7.53,0.64 9.7,0.21 0.1,0 2.02,0 2.98,0 1.61,0 3.2,0.22 4.52,0.48 0.1,0.02 0.24,0.04 0.3,0.07 0.1,0.05 2,-0.69 2.92,-1.12 1.69,-0.78 3.17,-2.3 4.58,-3.43 4.35,-3.48 8.05,-8.33 11.93,-12.63 0.07,-0.07 0.39,-0.31 0.54,-0.44 1.59,-1.22 3.17,-2.44 4.76,-3.66 1.15,-0.89 2.32,-1.74 3.49,-2.61 0.08,-0.06 0.69,-0.49 1,-0.7 0.08,-0.06 0.73,-0.33 1.08,-0.37 0.76,-0.1 1.56,-0.31 2.3,0.01 2.52,1.08 3.84,2.17 5.51,4.14 0.41,0.49 1.12,0.99 0.89,1.66 M 422,209.9 c 0,0 0,0 0,0 0,0 0,0 0,0 m 38.7,-4.8 c 0,0 0,0 0,0 m -38,-0.7 c 0,0 0,0 0,0 m 1.6,7.7 c 0,0 0,0 0,0 0,0 0,0 0,0 m 23.5,-8.1 c 0,0 0.1,0 0.1,0 m 0.1,0.9 c 0,0 0,0 0,0 0,0 0,0 0,0 m 40,-17.4 c 0,0 0,0 0,0 m 8.8,-6.7 c 0,0 0,0 0,0 m 1,-0.7 c 0,0 0,0 0,0 m 5.7,11.5 c 0,0 0,0 0,0 m 3.2,-6.3 c 0,0 0,0 0,0 m -45.9,19.75 c 0,0 -2.8,-0.05 -4.19,-0.05 -2.83,0 -5.69,-0.37 -8.51,-0.11 -0.1,0.01 -0.7,0.03 -1,0.05 -2.09,0.12 -4.3,0.36 -6.41,0.36 -3.85,0 -7.65,-0.03 -11.49,0.13 -1.97,0.08 -5.39,0.42 -6.8,0.07 -0.1,-0.1 -0.06,0.57 -0.01,0.9 0.17,1.17 -0.32,2.67 0.51,3.5 2.05,2.05 4.41,2.46 6.5,2.88 0.1,0.02 2,-0.32 2,0.32 0,0.37 0.73,0.01 1.1,-0.01 0.8,-0.02 1.6,-0.05 2.4,-0.07 3.24,-0.1 2.7,-0.1 8.8,-0.39 5.36,-0.26 10.74,-1.04 16.1,-1.23 3.41,-0.12 8.04,0.63 11.5,0.3 6.79,-0.65 11.63,-5.47 16.5,-9.7 3.83,-3.33 6.58,-5.37 10.71,-8.35 1.58,-1.14 3.38,-2.45 5.09,-3.02 0.1,-0.03 1.13,-1.12 1.54,-1.74 0.78,-1.17 1.11,-2.35 1.52,-3.49 0.04,-0.1 -0.79,-2.61 -1.66,-2.3 -0.02,0.01 -3.42,-2.05 -3.9,-2.34 -0.1,-0.06 -1.93,-0.11 -2.8,0.14 -1.24,0.36 -2.86,2 -3.72,2.64 -0.08,0.06 -1.3,0.79 -1.85,1.24 -1.38,1.12 -2.77,2.24 -4.15,3.36 -0.08,0.06 -0.36,0.35 -0.5,0.5 -0.92,0.94 -1.84,1.88 -2.76,2.82 -0.84,0.87 -1.54,1.84 -2.3,2.78 -3.12,3.91 -8.82,10.67 -14.22,11.35 -0.1,0.01 -0.33,0.08 -0.4,0.01 -0.1,-0.1 -1.69,-0.37 -2.5,-0.4 -1.69,-0.07 -3.38,-0.1 -5.08,-0.1"
       id="path80" /><path
       fill="#000000"
       d="m 437.6,183.4 c 0,0 0,0 0,0 m -14.8,20.7 c 0,0 0,0 0,0 m 26.3,-23 c 0,0 0,0 0,0 m 6.4,-1.1 c 0,0 0,0 0,0 m 4,-0.6 c 0,0 0.07,0 0.1,0 m -16.3,3.6 c 0,0 0,0 0,0 m 5.8,-1.9 c 0,0 0,0 0,0 0,0 0,0 0,0 m 6.5,-1.1 c 0,0 0,0 0,0 -0.1,0 -0.1,0 -0.1,0 m -12.2,3 c 0,0 -1.26,0.19 -1.9,0.22 -1.3,0.07 -2.6,0.13 -3.9,0.18 0,0 -2.4,0.3 -3.49,0.78 -2.13,0.93 -4.69,2.46 -6.41,4.02 -2.39,2.17 -6.2,5.53 -6.2,9.2 0,2.24 0.88,4.43 1.38,6.6 0.02,0.1 -0.21,1.21 -0.48,1 -1.15,-0.87 -1.85,-6.22 -1.7,-7.3 0.64,-4.51 3.77,-8.08 7.02,-10.51 0.93,-0.7 2.36,-1.98 3.28,-2.29 0.1,0 0.92,-0.52 1.32,-0.79 0.75,-0.48 1.71,-0.89 2.58,-1.11 2.91,-0.73 6.09,0 8.9,-0.7 0.55,-0.14 1.61,-0.7 2.1,-0.45 0.1,0.05 0.78,-0.26 1.12,-0.42 0.63,-0.29 1.4,-0.25 2.08,-0.32 0.1,-0.01 0.1,-0.01 0.1,-0.01 0,0 0.92,-0.32 1.4,-0.39 1.63,-0.23 3.27,-0.46 4.9,-0.7 0.1,-0.01 0.1,-0.01 0.1,-0.01 0,0 1,-0.3 1.5,-0.43 0.83,-0.2 0.68,-0.1 1.71,-0.53 0.09,-0.04 0.22,-0.14 0.29,-0.14 0.1,0 0.28,-1.1 0.7,-1.1 0.66,0 0.05,1.06 -0.06,1.3 -0.04,0.1 -0.07,0.38 -0.14,0.5 -0.1,0.1 -0.24,0.3 -0.35,0.3 -0.15,0 -0.92,0.46 -1.35,0.5 -0.17,0.02 -0.5,-0.27 -0.5,-0.1 0,0.11 -1.77,0.58 -2.5,0.69 -0.94,0.15 -8.8,1.45 -8.8,1.61 0,0.11 -2.15,0.32 -2.7,0.4"
       id="path82" /><path
       fill="#000000"
       d="m 456.9,177.7 c 0,0 0,0 0,0 m 0.4,0.1 c 0,0 0,0 0,0 m 0,-0.7 c 0,0 0.1,-0.1 0.1,-0.1 m -0.1,0.6 c 0,0 0,0 0,0 m 21.9,-20.2 c 0,0 0,0 0,0 m 0.9,-1.5 c 0,0 0.1,0 0.1,0 m 1.3,-0.2 c 0,0 0,0 0,0 m 16.9,23 c 0,0 0,0 0,0 0,0 0,0 0,0 m -41.48,-1.1 c 0,0 0.05,-0.5 0.23,-0.5 0.15,0 0.22,0.03 0.25,0.05 0.1,0.05 0.08,-0.03 0.1,-0.05 0.1,0 1.07,-1.16 1.52,-1.76 0.83,-1.11 2.06,-2.35 3.18,-3.19 0.4,-0.3 0.66,-0.79 0.97,-1.18 0.17,-0.23 0.78,-0.8 0.53,-0.67 -0.22,0.11 0.81,-1.41 1.29,-1.89 0.75,-0.75 1.99,-2.47 3.26,-3.35 4.05,-2.8 7.58,-6.49 11.76,-9.1 0.09,-0.06 0.49,-0.06 0.69,-0.06 0,0 0.46,-0.14 0.7,-0.18 0.1,-0.02 0.62,0.16 0.88,0.23 0.83,0.2 2.06,0.45 3.02,0.75 1.99,0.62 4.04,2.87 5.46,4.19 4.49,4.19 8.13,11.45 7.65,17.71 -0.01,0.1 -0.82,0.23 -0.74,0 0.03,-0.1 -0.01,-0.77 -0.05,-1.1 -0.15,-1.03 -0.29,-2.07 -0.44,-3.1 -0.38,-2.73 -1.56,-4.84 -2.81,-7.27 -1.87,-3.65 -5.12,-7.29 -8.67,-9.43 -1.23,-0.74 -3.08,-0.54 -4.3,-1.15 -0.1,-0.05 -0.37,0.02 -0.5,0.05 0,0 -0.26,0.25 -0.4,0.2 -0.1,-0.1 -0.1,-0.1 -0.1,-0.1 -0.2,0 -0.79,0.43 -1.1,0.63 -0.1,0.07 -1.31,1.23 -1.98,1.73 -1.98,1.49 -4,2.77 -5.96,4.31 -3.3,2.6 -5.87,6.33 -8.18,8.89 -1.55,1.73 -3.87,3.21 -4.93,5.34 -0.05,0.1 0.46,0.38 0.65,0.6 0.44,0.51 0.52,0.93 0.84,1.4 1.66,2.47 3.27,4.81 5,7.22 0.06,0.08 1.9,1.62 1.66,2.58 -0.26,1.04 -1.24,-0.62 -1.43,-0.9 -0.07,-0.1 -1.76,-2.31 -2.6,-3.41 -1.36,-1.79 -3.07,-3.33 -4.31,-5.2 -0.06,-0.09 0.22,1.79 0.48,2.69 0.54,1.87 1.1,3.74 1.63,5.61 0.32,1.14 0.64,2.28 0.96,3.42 0.14,0.48 0.02,1.55 -0.55,0.79 -0.08,-0.1 -0.18,-0.15 -0.18,-0.2 0,-0.1 -0.08,-0.08 -0.1,-0.1 0,-0.1 -0.11,-0.49 -0.16,-0.68 -0.79,-2.88 -1.59,-5.76 -2.38,-8.64 -0.45,-1.62 -0.59,-3.32 -0.84,-4.98"
       id="path84" /><path
       fill="#000000"
       d="m 455.3,180.4 c 0,0 -0.02,-0.08 0,-0.1 m -0.3,1.1 c 0,0 0,0 0,0 0,0 0,0 0,0 m 0.4,-1 c 0,0 -0.02,0.08 0,0.1 0.1,0 0.1,0 0.1,0 m -0.1,-0.2 c 0,0 0.05,-0.12 0.1,-0.15 0.1,-0.05 0.15,-0.15 0.2,-0.15 0.1,0 0.1,0 0.1,0 0.1,0 0.31,0.02 0.35,0.1 0.05,0.1 0.05,0.1 0.05,0.1 0,0.1 0.02,0.32 -0.03,0.4 -0.07,0.1 -0.5,0.84 -0.77,0.7 -0.15,-0.07 0.55,-0.23 0.4,-0.3 -0.08,-0.04 -0.61,0.3 -0.7,0.35 -0.1,0.05 -1.32,-0.38 -1.87,-0.71 -1.11,-0.67 -1.98,-1.67 -2.73,-2.74 -1.84,-2.63 -3.77,-8.14 -0.6,-10.8 1.55,-1.3 5,-0.73 6.2,0.8 1.51,1.93 1.36,5.6 0.87,7.8 0,0.01 -0.42,3.22 -1.07,3.8 -0.82,0.73 0.18,-3.26 0.27,-4 0.45,-3.99 0.51,-7.54 -3.97,-8.28 -0.1,-0.02 -1.17,0.27 -1.7,0.45 -0.1,0.03 -0.58,1 -0.83,1.48 -0.38,0.78 -0.68,1.79 -0.67,2.65 0.03,2.82 1.98,5.27 3.68,7.31 0.78,0.94 2.62,1.61 2.72,1.55 0.1,-0.06 0,-0.11 0,-0.16 0.1,0 0.02,0.02 0,0 0,-0.1 0,-0.1 0,-0.1"
       id="path86" /><path
       fill="#000000"
       d="m 456,180.9 c 0,0 -0.49,-0.02 -0.62,-0.2 -0.08,-0.1 -0.78,-0.7 -1.1,-1.02 -0.08,-0.08 -0.87,0.19 -1.28,0.23 -0.86,0.1 -1.73,0.27 -2.6,0.29 -2.61,0.05 -5.64,-0.67 -8,-1.8 -4.17,-1.98 -5.14,-6.38 -0.3,-7.67 0.1,-0.03 0.63,0.09 0.9,0.15 0.1,0.02 1.87,0.9 2.75,1.35 0.94,0.46 1.76,1.06 2.65,1.64 2.48,1.63 5.02,3.85 7.13,5.96 0.07,0.07 0.72,1.03 0.37,1.17 m -2.38,-2.07 c 0,0 -0.69,-0.72 -1.11,-0.99 -0.82,-0.54 -1.64,-1.08 -2.47,-1.62 -2.53,-1.65 -4.63,-3.41 -7.45,-4.78 -0.09,-0.04 -1.06,0.05 -1.49,0.26 -0.6,0.29 -1.16,0.96 -1.62,1.42 -0.08,0.08 0.53,1.22 0.78,1.81 0.41,0.97 1.53,2.23 2.54,2.67 3.5,1.52 7.13,1.76 10.8,1.31 m -11.3,-8.31 c 0,0 0,0 0,0 m 0.9,0.2 c 0,0 0,0 0,0"
       id="path88" /><path
       fill="#000000"
       d="m 454.14,181.1 c 0,0 -0.31,0.42 -0.54,0.5 0,0 -0.64,0.48 -0.96,0.72 -0.62,0.47 -1.28,0.94 -1.84,1.48 -0.67,0.64 -2.28,3.26 -3,3.2 -1.27,-0.1 -4.56,-3.51 -5.92,-4.54 -0.08,-0.06 -0.25,1.69 -0.48,2.54 -0.46,1.71 -1.24,3.34 -1.86,5.01 -0.04,0.09 -0.43,0.35 -0.64,0.31 -0.1,-0.02 -0.75,-0.87 -1.13,-1.25 -1.5,-1.5 -3,-3 -4.5,-4.5 -0.07,-0.07 -0.37,-0.27 -0.49,-0.39 -0.08,-0.08 0.16,-0.89 0.42,-0.78 0.72,0.31 1.23,1.32 1.8,1.9 1.31,1.32 2.69,2.54 3.93,3.92 0.07,0.08 1.06,-2.61 1.56,-3.96 0.38,-1.01 0.38,-2.09 0.5,-3.16 0.01,-0.1 0.14,-0.81 0.41,-0.8 0.5,0.01 1.27,0.44 1.7,0.7 1.72,1.02 3.15,2.56 4.72,3.84 0.08,0.06 1.55,-1.63 2.28,-2.48 0.74,-0.85 1.68,-1.41 2.61,-2.1 0.22,-0.16 0.73,-0.71 0.99,-0.76 0.58,-0.1 0.55,0.88 0.1,1.03 m -21.2,2.57 c 0,0 0,0 0,0 0.1,0 0.1,0 0.1,0 m 6.1,6.2 c 0,0 0,0 0,0 0,0 0,0 0,0 m 0.7,-0.2 c 0,0 0,0 0,0 0,0 0,-0.1 0,-0.1"
       id="path90" /><path
       fill="#000000"
       d="m 546.8,100.9 c 0,0 0,0 0,0 m 1.3,-0.2 c 0,0 0,0.07 0,0.1 m 1.5,-1.7 c 0,0 0,0 0,0 m 4.1,78.9 c 0,0 0,0 0,0 m 1.4,-0.3 c 0,0 0,0 0,0 0,0 0,0 0,0 m -8.23,-76.87 c 0,0 1.23,-1.44 1.23,-0.93 0,0.53 0.93,-0.52 1.41,-0.75 0.09,-0.05 2.79,0.18 2.79,-0.75 0,-0.6 2.3,2.23 2.46,2.61 0.04,0.09 0.9,-0.24 0.79,-0.01 -0.05,0.1 -0.04,0.5 -0.03,0.7 0.03,1.3 0.13,2.6 0.04,3.9 -0.54,8.14 -0.98,16.12 -1.5,24.2 -0.77,12.11 0.63,23.92 1.4,36 0.18,2.75 1.93,9.61 -0.36,11.9 0,0 -1.1,0.37 -0.9,0.7 0.03,0.05 -0.41,0.61 -1.2,0.9 -1.36,0.51 -2.11,0.03 -3.1,-0.9 -3.93,-3.71 -4.34,-8.78 -4.84,-13.9 -0.15,-1.53 0.26,-3.07 0.24,-4.6 -0.08,-5.71 -0.13,-11.59 -0.4,-17.3 -0.49,-10.4 -1.44,-21.26 0.28,-31.6 0.02,-0.1 -0.63,-2.79 -0.34,-4.1 0.35,-1.54 0.35,-2.98 0.89,-4.6 0.13,-0.37 0.34,-1.07 0.67,-1.3 0.04,-0.03 0.5,-0.07 0.5,-0.1 m 5.7,-1.6 c 0,0 0,0 0,0 m -3,-0.2 c 0,0 0,0 0,0 m 3.1,0.25 c 0,0 -0.06,-0.06 -0.1,-0.08 -0.1,-0.07 -0.83,0.05 -1.2,0.11 -0.54,0.09 -1.49,0.41 -1.7,0.52 -0.49,0.25 -1.18,0.87 -0.9,0.4 0.16,-0.27 -1.11,0.5 -0.8,0.5 0.1,0 -1.3,0.35 -1.3,0.9 0,1.16 -1.02,3.83 -1.1,5.6 -0.06,1.36 0.47,2.74 0.4,4.1 -0.17,3.38 -0.76,6.77 -0.8,10.2 -0.11,9.3 0.47,18.51 0.59,27.8 0.07,4.87 -0.36,10.15 0.06,15 0.4,4.66 0.74,11.84 5.75,14.35 0.1,0.05 1.41,-0.37 2.01,-0.7 0.09,-0.05 1.27,-0.9 1.49,-1.55 0.43,-1.28 0.1,-3.41 0.1,-4.6 0,-5.81 -1.01,-12.66 -1.55,-18.8 -0.51,-5.68 -1.22,-11.7 -0.85,-17.4 0.72,-11.03 2.33,-22.32 1.9,-33.3 0,-0.1 -1.09,-2.29 -2.02,-3.03"
       id="path92" /><path
       fill="#000000"
       d="m 546.57,101.9 c 0,0 -0.22,0.25 -0.37,0.3 0,0 -0.27,-0.13 -0.4,-0.2 0,0 -1.18,-0.4 -1.78,-0.55 -1.81,-0.45 -2.83,-0.71 -4.52,-0.77 -4.57,-0.18 -8.77,1.36 -13.1,2.69 -1.9,0.58 -4.35,1.84 -6.06,2.87 -0.58,0.35 -1.74,0.38 -1.74,1.06 0,0.25 -0.8,0.53 -0.8,0 0,-0.46 0.9,-0.48 0.9,-0.7 0,-0.97 3.39,-1.75 4.99,-2.65 6.2,-3.5 15.97,-5.87 22.51,-2.6 0.1,0.05 0.43,0.71 0.2,0.78"
       id="path94" /><path
       fill="#000000"
       d="m 520,128.5 c 0,0 0,3.26 0,4.89 0,2.11 -0.1,4.22 -0.1,6.33 0,0.72 0,1.44 0,2.17 0,0.15 0.04,1.14 -0.1,1.21 -0.25,0.13 -0.7,-0.37 -0.7,-0.55 0,-0.15 0,-0.55 0,-0.75 0,-1.31 0.1,-2.61 0.1,-3.9 0,-2.97 0,-5.93 0,-8.89 0,-4.75 0.04,-9.29 -0.4,-14.01 -0.16,-1.71 -1.07,-3.7 -0.53,-5.3 0.03,-0.1 0.03,-0.23 0.03,-0.3 0,0 0,0 0,0 0.1,-0.1 0.17,-0.17 0.2,-0.2 0,0 0,0 0,0 0.1,0 0.3,0.07 0.4,0.1 0,0 0.02,0.14 0.05,0.2 0.05,0.1 0.05,0.1 0.05,0.1 0,0 0,0 0,0 0,0 0.05,0.4 0.07,0.6 0.15,1.33 0.31,2.67 0.46,4 0.23,2.02 0.3,4.1 0.43,6.1 0.34,5.24 0.04,10.64 0.04,15.9 m -1,-26.6 c 0,0 0,0 0,0"
       id="path96" /><path
       fill="#000000"
       d="m 514.4,141.7 c 0,0 0,0 0,0 m 4.4,1.1 c 0,0 -2.34,-0.12 -3.5,-0.24 -0.4,-0.04 -1.6,-0.06 -1.2,-0.06 0.06,0 -0.74,0.21 -1,0.28 -0.71,0.19 -1.4,0.39 -2.1,0.64 -1.96,0.7 -3.28,2.52 -3.87,4.38 -0.03,0.1 0.81,2.13 1.65,2.76 1.21,0.9 3.17,0.63 4.62,0.83 0.1,0.01 1.62,-1.04 2.39,-1.55 1.56,-1.04 2.74,-2.28 3.85,-3.76 M 514.1,152 c 0,0 0,0 0,0 0,-0.1 0,-0.1 0,-0.1 m 5.6,-5.9 c 0,0 0,0 0,0 0,0 0,0 0,0 m 7.55,3.5 c 0,0 -1.2,-0.87 -1.81,-1.28 -1.24,-0.82 -2.42,-2.04 -3.84,-2.39 -0.1,-0.03 -0.45,0.09 -0.53,-0.03 -0.07,-0.1 -0.14,-0.1 -0.17,-0.1 0,0 0,0 0,0 0,-0.1 -0.16,0.17 -0.24,0.3 -0.06,0.1 0.67,2.19 1.04,3.23 0.59,1.68 1.29,3.21 2.06,4.88 0.04,0.09 0.04,0.09 0.04,0.09 0.1,0 0.88,-0.94 1.27,-1.41 0.84,-1 1.65,-1.91 2.19,-3.1 m -6.36,-4.09 c 0,0 0,0 0,0 m 10.79,-7.6 c 0,0 -0.42,-1.67 -0.91,-2.35 -0.82,-1.14 -2.62,-1.8 -3.98,-1.45 -4.32,1.11 -5.57,5.19 -5.5,9.1 0,0.2 0.87,0.28 1.3,0.24 1.2,-0.11 2.45,0.02 3.6,-0.34 3.28,-1.04 6.9,-4.3 4.52,-7.64 m 1,30.48 c 0,0 -0.76,-0.58 -1.13,-0.87 -0.61,-0.46 -1.28,-0.76 -1.95,-1.12 -0.33,-0.18 -1.68,-0.55 -1.54,-0.95 0.63,-1.8 6.77,-6.12 1.7,-7.23 -0.7,-0.15 -1.4,-0.31 -2.1,-0.46 -0.83,-0.18 -1.97,-0.51 -2.5,-0.51 -0.1,0 0.43,1.39 0.63,2.1 0.28,0.99 0.43,2.01 0.78,2.98 1.17,3.28 2.86,7.24 3.39,10.62 0,0.1 0.92,-1.15 1.35,-1.79 0.56,-0.82 0.96,-1.73 1.4,-2.62 M 524.1,154.1 c 0,0 0,0 0,0 0,0 0,0 0,0 m 3.9,-5 c 0,0 0,0 0,0 m 19.3,29.4 c 0,0 0,0 0,0 m -33,-36.8 c 0,0 1.27,0.09 1.9,0.12 0.84,0.03 1.66,0.28 2.5,0.28 0.1,0 0.57,-0.16 0.65,0 0.05,0.1 0.13,0.08 0.15,0.1 0,0.1 0.52,1.83 0.77,2.7 0.03,0.1 0.13,-0.63 0.13,-1 0,-0.7 0,-1.4 0,-2.1 0,-1.79 0.55,-3.97 1.7,-5.4 2.11,-2.62 5.96,-4.33 8.8,-1.8 2.45,2.19 1.58,5.52 -0.9,7.4 -1.84,1.39 -4.11,2.08 -6.3,2.49 -1.14,0.21 -2.66,-1.21 -2.32,0.31 0.02,0.1 1.55,0.68 2.22,1.15 1.4,0.99 2.94,1.98 4.32,3.08 0.08,0.07 -0.02,1.33 -0.32,1.87 -0.71,1.28 -1.91,2.04 -2.64,3.21 -0.06,0.09 0.87,0.32 1.34,0.41 1.4,0.28 4.7,0.47 5.3,2.48 0.61,2.05 -2.41,4.82 -3.33,5.92 -0.07,0.08 1.04,0.62 1.55,0.97 0.39,0.26 2.33,1.37 2.68,1.81 0.68,0.86 -2.31,5.2 -3,5.55 -0.1,0.05 0.7,1.34 1.21,1.9 1.42,1.57 2.59,2.62 4.49,3.75 4.3,2.56 7.08,1.5 11.7,1.5 0.1,0 0.39,-0.14 0.5,-0.07 0.1,0.07 0.58,-0.09 0.7,0.07 0.37,0.5 -0.68,0.64 -0.9,0.6 0,0 -1.58,0.48 -2.4,0.53 -1.7,0.09 -3.76,0.48 -5.4,0.07 -4.17,-1.04 -8.29,-3.95 -10.55,-7.61 -0.05,-0.09 -0.71,-0.48 -0.55,-0.69 0.1,0 -0.17,-0.64 -0.28,-0.98 -0.38,-1.25 -0.76,-2.49 -1.14,-3.74 -0.81,-2.63 -2.43,-6.17 -2.68,-8.78 0,-0.2 -0.15,-0.57 -0.22,-0.76 -0.75,-1.86 -1.51,-3.72 -2.26,-5.58 -0.59,-1.48 -1.15,-2.95 -1.69,-4.46 -0.03,-0.1 -1,1.17 -1.57,1.72 -1.36,1.29 -2.72,2.13 -4.28,3.13 -0.08,0.05 -1.83,0.4 -2.68,0.24 -2.31,-0.44 -5.29,-1.27 -5.3,-4.29 -0.01,-3.3 4.87,-5.77 8.1,-6.09"
       id="path98" /><path
       fill="#000000"
       d="m 540.17,86.1 c 0,0 -1.74,-0.37 -2.51,-0.8 -1.87,-1.04 -3.27,-1.38 -5.36,-1.71 -5.16,-0.8 -10.38,1.23 -14.4,4.21 0,0 -0.74,-0.25 -0.64,-0.5 0.04,-0.1 0.11,-0.13 0.14,-0.15 0.1,-0.05 0.21,-0.22 0.3,-0.25 0,0 1.14,-0.88 1.71,-1.32 0.93,-0.72 2.09,-1.19 3.19,-1.58 3.56,-1.27 7.68,-1.71 11.4,-1 2.17,0.41 3.47,1.3 5.47,2.41 0.2,0.11 1.19,0.7 0.53,0.92 m -22.7,0.87 c 0,0 0,0 0,0"
       id="path100" /><path
       fill="#000000"
       d="m 532.63,68.9 c 0,0 -0.4,0.33 -0.53,0.2 -0.1,-0.1 -1.09,-0.44 -1.6,-0.54 -1.1,-0.23 -2.18,-0.6 -3.3,-0.51 -3.81,0.29 -8.25,0.81 -11.5,2.98 -0.1,0.07 -0.2,0.27 -0.25,0.37 -0.05,0.1 -0.05,0.1 -0.05,0.1 -0.1,0.1 -0.78,0.15 -0.87,-0.1 -0.03,-0.1 -0.03,-0.1 -0.03,-0.1 0,0 -0.05,-0.15 0,-0.2 0.1,0 0.13,-0.17 0.2,-0.2 0.2,0 0.2,0 0.2,0 0,-0.1 0.15,-0.25 0.23,-0.33 0.07,-0.07 2.26,-1.31 3.46,-1.62 2.23,-0.58 6.51,-2.14 9.11,-1.76 0.46,0.06 4.5,0.63 4.4,1.11 -0.04,0.21 1.12,0.56 0.3,0.83 m -17.6,1.77 c 0,0 0,0 0,0 0,0 0,0 0,0 m 0.4,-0.4 c 0,0 0.1,-0.15 0.1,-0.1 m 0,0.9 c 0,0 0,0 0,0 0,0 0.1,-0.1 0.1,-0.1 m 0,0.4 c 0,0 0,0 0,0 0,-0.1 0,-0.1 0,-0.1 m 0.1,-0.3 c 0,0 0.08,0.02 0.1,0"
       id="path102" /></g></svg>
